<?xml version="1.0" encoding="UTF-8" standalone="no"?>
<!-- Generator: Adobe Illustrator 19.0.0, SVG Export Plug-In . SVG Version: 6.00 Build 0)  -->

<svg
   version="1.1"
   id="Capa_1"
   x="0px"
   y="0px"
   viewBox="0 0 47.94 47.94"
   style="enable-background:new 0 0 47.94 47.94;"
   xml:space="preserve"
   sodipodi:docname="star-svgrepo-com.svg"
   inkscape:version="1.2.1 (9c6d41e410, 2022-07-14)"
   xmlns:inkscape="http://www.inkscape.org/namespaces/inkscape"
   xmlns:sodipodi="http://sodipodi.sourceforge.net/DTD/sodipodi-0.dtd"
   xmlns="http://www.w3.org/2000/svg"
   xmlns:svg="http://www.w3.org/2000/svg"><defs
   id="defs37" /><sodipodi:namedview
   id="namedview35"
   pagecolor="#ffffff"
   bordercolor="#000000"
   borderopacity="0.25"
   inkscape:showpageshadow="2"
   inkscape:pageopacity="0.0"
   inkscape:pagecheckerboard="0"
   inkscape:deskcolor="#d1d1d1"
   showgrid="false"
   inkscape:zoom="17.459325"
   inkscape:cx="14.376272"
   inkscape:cy="23.998637"
   inkscape:window-width="1920"
   inkscape:window-height="1017"
   inkscape:window-x="-8"
   inkscape:window-y="-8"
   inkscape:window-maximized="1"
   inkscape:current-layer="Capa_1" />
<path
   style="fill:#748899;fill-opacity:1"
   d="M26.285,2.486l5.407,10.956c0.376,0.762,1.103,1.29,1.944,1.412l12.091,1.757  c2.118,0.308,2.963,2.91,1.431,4.403l-8.749,8.528c-0.608,0.593-0.886,1.448-0.742,2.285l2.065,12.042  c0.362,2.109-1.852,3.717-3.746,2.722l-10.814-5.685c-0.752-0.395-1.651-0.395-2.403,0l-10.814,5.685  c-1.894,0.996-4.108-0.613-3.746-2.722l2.065-12.042c0.144-0.837-0.134-1.692-0.742-2.285l-8.749-8.528  c-1.532-1.494-0.687-4.096,1.431-4.403l12.091-1.757c0.841-0.122,1.568-0.65,1.944-1.412l5.407-10.956  C22.602,0.567,25.338,0.567,26.285,2.486z"
   id="path2" />
<g
   id="g4">
</g>
<g
   id="g6">
</g>
<g
   id="g8">
</g>
<g
   id="g10">
</g>
<g
   id="g12">
</g>
<g
   id="g14">
</g>
<g
   id="g16">
</g>
<g
   id="g18">
</g>
<g
   id="g20">
</g>
<g
   id="g22">
</g>
<g
   id="g24">
</g>
<g
   id="g26">
</g>
<g
   id="g28">
</g>
<g
   id="g30">
</g>
<g
   id="g32">
</g>
</svg>
